<?xml version="1.0" encoding="utf-8"?>
<!-- Generator: Adobe Illustrator 16.0.0, SVG Export Plug-In . SVG Version: 6.00 Build 0)  -->
<!DOCTYPE svg PUBLIC "-//W3C//DTD SVG 1.1//EN" "http://www.w3.org/Graphics/SVG/1.1/DTD/svg11.dtd">
<svg version="1.1" id="Layer_1" xmlns="http://www.w3.org/2000/svg" xmlns:xlink="http://www.w3.org/1999/xlink" x="0px" y="0px"
	 width="560px" height="330px" viewBox="0 0 560 330" enable-background="new 0 0 560 330" xml:space="preserve">
<g>
	<g>
		<path fill="#FFFFFF" d="M91.811,120.333c37.079,17.169,75.25,32.233,113.576,46.345c70.9,26.104,144.52,49.489,219.809,58.394
			c33.688,3.982,69.66,5.295,102.336-5.297c3.099-1.004-0.978-2.531-2.691-1.975c-30.084,9.752-63.187,8.518-94.227,5.213
			c-38.235-4.072-75.963-12.771-112.977-22.992c-64.898-17.918-128.354-41.373-190.306-67.652
			c-10.768-4.568-21.526-9.191-32.141-14.106C93.735,117.589,89.237,119.142,91.811,120.333L91.811,120.333z"/>
	</g>
</g>
<path fill="#FFFFFF" d="M127.601,253.829c1.893,1.78,4.283,2.673,7.167,2.673c3.223,0,5.767-0.991,7.633-2.968
	c1.865-1.979,2.799-4.806,2.799-8.482c0-3.788-0.92-6.657-2.757-8.607c-1.838-1.953-4.397-2.928-7.675-2.928
	c-3.223,0-5.697,0.975-7.422,2.928c-1.725,1.95-2.586,4.819-2.586,8.607C124.76,249.124,125.706,252.047,127.601,253.829z"/>
<path fill="#FFFFFF" d="M313.669,307.445h-78.536v11.109h78.536V307.445z"/>
<path fill="#FFFFFF" d="M410.852,258.056c1.893,1.781,4.283,2.67,7.164,2.67c3.225,0,5.77-0.988,7.635-2.969
	c1.865-1.979,2.799-4.805,2.799-8.479c0-3.791-0.92-6.66-2.756-8.609c-1.84-1.951-4.396-2.928-7.678-2.928
	c-3.221,0-5.695,0.977-7.42,2.928c-1.723,1.949-2.586,4.818-2.586,8.609C408.01,253.351,408.955,256.274,410.852,258.056z"/>
<path fill="#FFFFFF" d="M479.814,320.298h40v-150h-40v11.844h25.297v126.228h-25.297V320.298z"/>
<path fill="#FFFFFF" d="M79.814,170.298h-40v150h40v-11.844H54.519V182.225h25.295V170.298z"/>
<path fill-rule="evenodd" clip-rule="evenodd" fill="#FFFFFF" d="M390.891,217.501l54.68,10.021v40.086h-54.68V217.501z"/>
<g>
	<path fill="#FFFFFF" d="M519.301,166.999c0,0-107.652,0.002-240.438,0.002c-132.795,0-240.443-0.002-240.443-0.002
		S43.645,13.298,278.86,13.298C528.17,13.298,516.282,163.793,519.301,166.999z"/>
	<path fill="#FFFFFF" d="M11.147,166.443c0,8.613-16.007,15.599-2.315,15.599c13.694,0,24.793-6.985,24.793-15.599
		c0-8.614,16.005-15.599,2.314-15.599C22.248,150.845,11.147,157.829,11.147,166.443z"/>
	<path fill="#FFFFFF" d="M22.387,146.473c11.36,0,20.569,12.137,20.569,1.753c0-10.378-9.209-18.796-20.569-18.796
		c-11.361,0-20.572-12.137-20.572-1.755S11.025,146.473,22.387,146.473z"/>
</g>
<g>
	<g>
		<path fill="#FFFFFF" d="M134.979,205.213c1.533,0,3.048,0.09,4.546,0.265l1.359,9.771c2.337,0.452,4.618,1.2,6.845,2.245
			l6.586-6.895c2.647,1.568,5.088,3.461,7.315,5.694l-4.389,8.152c1.637,1.742,3.033,3.658,4.182,5.749l8.621-1.621
			c1.289,2.926,2.214,5.992,2.771,9.199l-7.734,3.604c0.138,1.222,0.209,2.42,0.209,3.606c0,1.186-0.071,2.386-0.209,3.606
			l7.734,3.658c-0.557,3.171-1.482,6.216-2.771,9.146l-8.621-1.624c-1.149,2.094-2.545,4.025-4.182,5.802l4.389,8.1
			c-2.227,2.232-4.668,4.147-7.315,5.749l-6.586-6.896c-2.228,1.011-4.508,1.757-6.845,2.243l-1.359,9.722
			c-1.498,0.208-3.013,0.313-4.546,0.313c-1.532,0-3.048-0.105-4.545-0.313l-1.359-9.722c-2.336-0.486-4.617-1.232-6.846-2.243
			l-6.585,6.896c-2.647-1.602-5.087-3.517-7.317-5.749l4.389-8.1c-1.636-1.741-3.031-3.676-4.18-5.802l-8.622,1.624
			c-1.29-2.931-2.213-5.976-2.771-9.146l7.734-3.658c-0.139-1.221-0.209-2.421-0.209-3.606c0-1.187,0.07-2.385,0.209-3.606
			l-7.734-3.604c0.558-3.207,1.481-6.273,2.771-9.199l8.622,1.621c1.148-2.091,2.543-4.024,4.18-5.802l-4.389-8.1
			c2.229-2.233,4.669-4.126,7.317-5.694l6.585,6.843c2.229-1.009,4.51-1.741,6.846-2.193l1.359-9.771l2.246-0.265H134.979z
			 M134.979,221.991c-6.339,0-11.758,2.254-16.252,6.768c-4.493,4.512-6.74,9.929-6.74,16.248c0,6.326,2.247,11.735,6.74,16.228
			c4.494,4.495,9.913,6.74,16.252,6.74c6.341,0,11.759-2.245,16.251-6.74c4.497-4.492,6.741-9.901,6.741-16.228
			c0-6.319-2.244-11.736-6.741-16.248c0,0-2.521-2.621-6.375-4.461C140.22,222.086,134.979,221.991,134.979,221.991z
			 M143.079,244.983c0,2.229-0.791,4.138-2.377,5.724c-1.587,1.579-3.493,2.375-5.723,2.375c-2.229,0-4.136-0.796-5.721-2.375
			c-1.585-1.586-2.378-3.495-2.378-5.724c0-2.229,0.792-4.137,2.378-5.723s3.492-2.377,5.721-2.377c2.23,0,4.136,0.791,5.723,2.377
			L143.079,244.983z"/>
	</g>
</g>
<g id="_x23_010101ff">
	<path fill="#FFFFFF" d="M246.978,288.744c3.388-1.682,7.059-2.728,10.792-3.291c3.424-0.297,6.865,0.223,10.187,1.043
		c3.138,1.169,6.007,2.921,8.817,4.724c2.249-1.266,4.286-2.971,6.787-3.729c2.222-0.738,4.396-1.743,6.762-1.918
		c3.158-0.597,6.366-0.078,9.526,0.209c4.153,0.454,8.021,2.21,11.611,4.273c6.44,3.636,12.411,8.04,18.856,11.665
		c2.575,1.218,5.248,2.538,8.159,2.566c2.361-0.092,4.703-0.981,6.435-2.601c0.893-1.103,0.848-2.642,0.905-3.985
		c0.039-3.386-2.076-6.717-5.231-7.976c-1.549-0.46-3.368-0.486-4.683,0.575c-0.816,0.466-1.322,1.595-2.398,1.343
		c0.434-1.725,1.957-2.892,3.378-3.822c3.14-1.904,7.342-1.659,10.305,0.48c3.527,2.441,6.476,6.166,7.098,10.508
		c0.521,3.687,0.161,7.611-1.698,10.897c-1.351,2.164-2.593,4.476-4.576,6.133c-2.323,1.908-5.014,3.307-7.738,4.543
		c-4.398,1.443-8.896,2.854-13.56,2.945c-4.64,0.269-9.28-0.198-13.911-0.421c-8.318-1.232-16.604-3.271-24.271-6.781
		c-4.229-1.784-7.751-4.755-11.396-7.474c-1.394,0.635-2.457,1.762-3.657,2.679c-4.54,3.71-10.087,5.859-15.587,7.711
		c-6.88,2.402-14.08,3.734-21.306,4.561c-3.134,0.219-6.296,0.692-9.423,0.141c-3.551-0.186-6.982-1.182-10.376-2.158
		c-3.151-0.991-6.23-2.292-8.959-4.174c-3.138-2.687-5.786-6.17-6.729-10.254c-0.695-2.821-1.045-5.823-0.416-8.69
		c0.613-1.608,0.949-3.377,2.031-4.765c0.84-1.128,1.542-2.388,2.596-3.342c1.439-0.906,2.973-1.696,4.598-2.208
		c2.844-0.585,5.905-0.26,8.521,1.004c0.61,0.554,1.658,0.88,1.651,1.853c-1.495-0.057-2.796-0.973-4.296-0.983
		c-1.346-0.002-2.693,0.374-3.852,1.057c-2.331,1.889-3.27,5.049-2.979,7.974c0.142,1.107,0.084,2.327,0.794,3.262
		c0.88,1.479,2.552,2.424,4.274,2.393c3.339,0.072,6.359-1.553,9.32-2.882C231.365,297.736,238.914,292.767,246.978,288.744z"/>
</g>
</svg>
