<?xml version="1.0" encoding="utf-8"?>
<!-- Generator: Adobe Illustrator 16.0.0, SVG Export Plug-In . SVG Version: 6.00 Build 0)  -->
<!DOCTYPE svg PUBLIC "-//W3C//DTD SVG 1.1//EN" "http://www.w3.org/Graphics/SVG/1.1/DTD/svg11.dtd">
<svg version="1.1" id="Layer_1" xmlns="http://www.w3.org/2000/svg" xmlns:xlink="http://www.w3.org/1999/xlink" x="0px" y="0px" viewBox="0 0 560 330" xml:space="preserve">
<rect x="-17.5" y="-14.5" display="none" width="592" height="376"/>
<rect x="-93.5" y="-58.5" display="none" fill="#231F20" stroke="#000000" stroke-miterlimit="10" width="753" height="462"/>
<g>
	<g>
		<path  d="M91.811,117.333c37.079,17.169,75.25,32.233,113.576,46.345c70.9,26.104,144.52,49.489,219.809,58.396
			c33.688,3.981,69.66,5.295,102.336-5.298c3.099-1.004-0.979-2.53-2.691-1.976c-30.084,9.752-63.187,8.519-94.227,5.214
			c-38.235-4.072-75.963-12.771-112.979-22.992c-64.896-17.918-128.354-41.374-190.306-67.651
			c-10.768-4.568-21.526-9.191-32.141-14.106C93.735,114.589,89.237,116.142,91.811,117.333L91.811,117.333z"/>
	</g>
</g>
<path stroke="transparent" d="M127.601,253.829c1.893,1.78,4.283,2.673,7.167,2.673c3.223,0,5.767-0.991,7.633-2.968
	c1.865-1.979,2.799-4.806,2.799-8.482c0-3.788-0.92-6.657-2.757-8.606c-1.838-1.952-4.397-2.928-7.675-2.928
	c-3.223,0-5.697,0.976-7.422,2.928c-1.725,1.949-2.586,4.818-2.586,8.606C124.76,249.124,125.706,252.047,127.601,253.829z"/>
<path display="none"  d="M313.669,307.445h-78.536v11.109h78.536V307.445z"/>
<path  d="M410.852,258.057c1.895,1.78,4.283,2.67,7.164,2.67c3.227,0,5.771-0.987,7.637-2.97
	c1.863-1.979,2.799-4.805,2.799-8.479c0-3.791-0.92-6.658-2.756-8.607c-1.842-1.951-4.396-2.928-7.68-2.928
	c-3.221,0-5.693,0.977-7.42,2.928c-1.723,1.949-2.586,4.816-2.586,8.607C408.01,253.352,408.955,256.273,410.852,258.057z"/>
<path  d="M479.814,320.298h40v-150h-40v11.845h25.297V308.37h-25.297V320.298L479.814,320.298z"/>
<path  d="M79.814,170.298h-40v150h40v-11.844H54.519V182.225h25.295V170.298z"/>
<path  d="M392.89,216.042l54.682,8.291c0,0,3.884,35.817,0,40.086s-33.738,14.748-54.682,0
	C387.795,260.831,392.89,216.042,392.89,216.042z"/>
<g>
	<path  d="M519.301,166.999c0,0-107.65,0.002-240.438,0.002c-132.795,0-240.443-0.002-240.443-0.002
		S43.645,13.298,278.86,13.298C528.17,13.298,516.282,163.793,519.301,166.999z"/>
	<path  d="M11.147,166.443c0,8.613-16.007,15.599-2.315,15.599c13.694,0,24.793-6.985,24.793-15.599
		c0-8.614,16.005-15.601,2.314-15.601C22.248,150.845,11.147,157.829,11.147,166.443z"/>
	<path  d="M22.387,146.473c11.36,0,20.569,12.137,20.569,1.753c0-10.378-9.209-18.796-20.569-18.796
		c-11.361,0-20.572-12.137-20.572-1.755C1.815,138.057,11.025,146.473,22.387,146.473z"/>
</g>
<g>
	<g>
		<path d="m134.729,204.963c1.53299,0 3.04799,0.09 4.54599,0.26601l1.35901,9.771c2.33699,0.452 4.618,1.2 6.845,2.245l6.586,-6.896c2.647,1.567 5.088,3.461 7.315,5.69301l-4.38901,8.15199c1.63701,1.742 3.033,3.658 4.18201,5.748l8.621,-1.621c1.28899,2.927 2.21399,5.992 2.771,9.19901l-7.73401,3.60399c0.138,1.22301 0.209,2.42001 0.209,3.60501c0,1.187 -0.071,2.38699 -0.209,3.605l7.73401,3.658c-0.55701,3.17099 -1.48201,6.216 -2.771,9.146l-8.621,-1.625c-1.149,2.09399 -2.545,4.02399 -4.18201,5.80301l4.38901,8.09998c-2.22701,2.23203 -4.668,4.14603 -7.315,5.74902l-6.586,-6.896c-2.228,1.01099 -4.50801,1.75598 -6.845,2.24197l-1.35901,9.72302c-1.498,0.207 -3.013,0.31299 -4.54599,0.31299c-1.532,0 -3.048,-0.10501 -4.545,-0.31299l-1.35901,-9.72302c-2.336,-0.48599 -4.617,-1.23099 -6.846,-2.24197l-6.585,6.896c-2.647,-1.603 -5.087,-3.517 -7.31699,-5.74902l4.389,-8.09998c-1.636,-1.741 -3.03101,-3.67599 -4.18,-5.80301l-8.622,1.625c-1.29,-2.93301 -2.21301,-5.978 -2.771,-9.146l7.734,-3.658c-0.139,-1.22099 -0.209,-2.42101 -0.209,-3.605c0,-1.188 0.07,-2.38501 0.209,-3.60501l-7.734,-3.60399c0.558,-3.207 1.481,-6.272 2.771,-9.198l8.622,1.62c1.14799,-2.09 2.543,-4.02299 4.18,-5.80099l-4.389,-8.10201c2.229,-2.23199 4.669,-4.12601 7.31699,-5.69301l6.585,6.84401c2.229,-1.01001 4.51,-1.741 6.846,-2.19301l1.35901,-9.771l2.24599,-0.265l2.29901,0.002l0,0zm0,16.778c-6.339,0 -11.758,2.254 -16.25201,6.76801c-4.493,4.513 -6.74,9.929 -6.74,16.248c0,6.32599 2.247,11.735 6.74,16.22798c4.494,4.496 9.913,6.74002 16.25201,6.74002c6.341,0 11.759,-2.24402 16.25099,-6.74002c4.49701,-4.48999 6.741,-9.89899 6.741,-16.22798c0,-6.319 -2.24399,-11.735 -6.741,-16.248c0,0 -2.521,-2.62 -6.375,-4.461c-4.63499,-2.21201 -9.87599,-2.30701 -9.87599,-2.30701z"/>
	</g>
</g>
<g id="_x23_010101ff">
	<path  d="M248.704,288.744c3.388-1.682,7.059-2.729,10.792-3.291c3.424-0.297,6.865,0.223,10.187,1.043
		c3.138,1.169,6.007,2.921,8.817,4.725c2.25-1.267,4.287-2.972,6.787-3.729c2.223-0.738,4.396-1.743,6.762-1.918
		c3.158-0.598,6.367-0.078,9.527,0.209c4.152,0.453,8.02,2.21,11.608,4.271c6.441,3.637,12.412,8.041,18.857,11.666
		c2.574,1.217,5.246,2.537,8.158,2.565c2.36-0.093,4.703-0.981,6.436-2.601c0.894-1.104,0.849-2.644,0.904-3.985
		c0.039-3.386-2.076-6.718-5.23-7.976c-1.549-0.461-3.368-0.486-4.684,0.573c-0.816,0.468-1.322,1.597-2.398,1.345
		c0.435-1.727,1.957-2.894,3.38-3.822c3.139-1.904,7.342-1.659,10.305,0.479c3.527,2.441,6.477,6.166,7.098,10.51
		c0.521,3.687,0.162,7.609-1.697,10.896c-1.352,2.164-2.594,4.478-4.575,6.133c-2.324,1.908-5.015,3.308-7.738,4.543
		c-4.398,1.443-8.896,2.854-13.562,2.945c-4.639,0.271-9.278-0.198-13.909-0.421c-8.318-1.232-16.604-3.271-24.271-6.781
		c-4.229-1.784-8.108-4.571-11.756-7.29c-1.394,0.635-2.097,1.578-3.297,2.495c-4.54,3.71-10.087,5.857-15.587,7.711
		c-6.88,2.4-14.08,3.732-21.306,4.563c-3.134,0.219-6.296,0.69-9.423,0.141c-3.551-0.186-6.982-1.182-10.376-2.158
		c-3.151-0.99-6.23-2.292-8.959-4.174c-3.138-2.688-5.786-6.17-6.729-10.254c-0.695-2.821-1.045-5.823-0.416-8.69
		c0.613-1.608,0.949-3.377,2.031-4.765c0.84-1.128,1.542-2.389,2.596-3.342c1.439-0.906,2.973-1.696,4.598-2.209
		c2.844-0.584,5.905-0.26,8.521,1.004c0.61,0.555,1.658,0.881,1.651,1.854c-1.495-0.057-2.796-0.973-4.296-0.982
		c-1.346-0.002-2.693,0.373-3.852,1.058c-2.331,1.89-3.27,5.049-2.979,7.976c0.142,1.105,0.084,2.325,0.794,3.262
		c0.88,1.479,2.552,2.424,4.274,2.393c3.339,0.072,6.359-1.553,9.32-2.882C233.091,297.736,240.64,292.768,248.704,288.744z"/>
</g>
</svg>
