<?xml version="1.0" encoding="UTF-8" ?>
<!DOCTYPE svg PUBLIC "-//W3C//DTD SVG 1.1//EN" "http://www.w3.org/Graphics/SVG/1.1/DTD/svg11.dtd">
<svg width="256pt" height="256pt" viewBox="0 0 256 256" version="1.1" xmlns="http://www.w3.org/2000/svg">
<g id="#663300ff">
<path fill="#663300" opacity="1.00" d=" M 0.00 0.00 L 256.00 0.00 L 256.00 196.55 C 255.06 207.60 248.36 217.32 239.85 224.06 C 242.63 215.95 243.45 207.38 244.79 198.96 C 245.22 195.26 244.97 191.53 245.00 187.81 C 245.01 169.41 244.98 151.02 245.02 132.62 C 242.14 135.90 238.98 138.92 235.56 141.64 C 237.41 129.96 239.39 118.31 240.81 106.57 C 242.00 96.78 243.15 86.88 242.15 77.03 C 239.95 82.29 239.84 88.17 237.22 93.30 C 233.07 105.24 224.71 115.06 215.85 123.82 C 210.29 129.40 203.92 134.11 197.21 138.21 C 200.36 131.51 203.73 124.86 205.82 117.73 C 208.61 108.60 210.01 99.12 210.87 89.63 C 197.19 86.61 181.15 90.07 172.58 101.87 C 171.48 100.88 170.36 99.90 169.24 98.93 C 175.57 90.59 185.55 85.36 195.92 84.39 C 200.95 84.00 206.02 84.20 211.01 84.99 C 211.13 78.40 210.93 71.79 210.02 65.25 C 206.54 65.25 203.07 65.25 199.61 65.20 C 201.94 61.64 204.39 58.17 206.82 54.67 C 194.13 57.18 181.22 58.82 168.91 62.91 C 169.81 59.14 170.87 55.41 172.07 51.72 C 161.69 55.45 151.12 58.66 140.94 62.90 C 136.35 64.64 132.61 68.12 127.94 69.62 C 122.81 67.41 118.28 63.97 113.01 62.02 C 103.42 58.32 93.63 55.16 83.97 51.67 C 84.94 55.43 85.94 59.19 86.95 62.94 C 74.68 58.72 61.73 57.18 49.05 54.67 C 51.57 58.13 54.06 61.61 56.40 65.20 C 43.98 65.41 31.56 65.59 19.13 65.55 C 20.73 68.96 22.25 72.41 23.68 75.90 C 19.44 75.98 15.21 76.27 11.00 76.74 C 11.04 117.06 10.93 157.37 11.05 197.68 C 11.36 200.88 12.01 204.03 12.49 207.20 C 13.23 212.92 14.31 218.60 16.15 224.07 C 7.64 217.31 0.93 207.59 0.00 196.53 L 0.00 0.00 Z" />
<path fill="#663300" opacity="1.00" d=" M 36.90 87.89 C 53.43 80.39 75.56 83.92 86.74 98.94 C 85.61 99.92 84.49 100.90 83.37 101.88 C 69.89 83.56 38.27 84.30 25.55 103.14 C 24.37 102.30 23.19 101.45 22.02 100.61 C 25.95 95.30 30.79 90.61 36.90 87.89 Z" />
</g>
<g id="#ffdcb8ff">
<path fill="#ffdcb8" opacity="1.00" d=" M 83.97 51.67 C 93.63 55.16 103.42 58.32 113.01 62.02 C 118.28 63.97 122.81 67.41 127.94 69.62 C 132.61 68.12 136.35 64.64 140.94 62.90 C 151.12 58.66 161.69 55.45 172.07 51.72 C 170.87 55.41 169.81 59.14 168.91 62.91 C 181.22 58.82 194.13 57.18 206.82 54.67 C 204.39 58.17 201.94 61.64 199.61 65.20 C 203.07 65.25 206.54 65.25 210.02 65.25 C 210.93 71.79 211.13 78.40 211.01 84.99 C 206.02 84.20 200.95 84.00 195.92 84.39 C 185.55 85.36 175.57 90.59 169.24 98.93 C 170.36 99.90 171.48 100.88 172.58 101.87 C 181.15 90.07 197.19 86.61 210.87 89.63 C 210.01 99.12 208.61 108.60 205.82 117.73 C 203.73 124.86 200.36 131.51 197.21 138.21 C 203.92 134.11 210.29 129.40 215.85 123.82 C 224.71 115.06 233.07 105.24 237.22 93.30 C 239.84 88.17 239.95 82.29 242.15 77.03 C 243.15 86.88 242.00 96.78 240.81 106.57 C 239.39 118.31 237.41 129.96 235.56 141.64 C 238.98 138.92 242.14 135.90 245.02 132.62 C 244.98 151.02 245.01 169.41 245.00 187.81 C 240.11 193.16 235.31 198.59 230.68 204.15 C 232.53 205.87 234.38 207.58 236.24 209.29 C 239.44 206.16 242.63 202.93 244.79 198.96 C 243.45 207.38 242.63 215.95 239.85 224.06 C 230.20 232.10 218.72 237.53 207.14 242.18 C 190.49 248.73 172.83 252.27 155.13 254.50 C 154.33 254.38 152.75 254.16 151.95 254.04 C 159.19 250.82 166.96 247.37 171.41 240.43 C 177.10 231.83 177.82 219.71 172.06 210.97 C 169.77 207.31 165.10 209.06 161.70 209.66 C 154.61 211.45 147.33 212.23 140.03 212.56 C 134.37 212.98 128.68 213.75 123.00 213.09 C 115.10 212.25 107.08 212.41 99.29 210.63 C 95.25 209.89 91.22 208.51 87.06 208.80 C 84.25 210.19 82.96 213.26 81.99 216.06 C 78.39 226.17 81.30 238.42 89.57 245.42 C 94.61 250.39 101.58 252.27 107.80 255.25 C 86.99 253.19 66.14 249.34 46.74 241.33 C 35.90 236.86 25.21 231.61 16.15 224.07 C 14.31 218.60 13.23 212.92 12.49 207.20 C 17.59 203.44 21.04 198.00 25.45 193.52 C 23.54 191.70 21.59 189.92 19.62 188.17 C 16.77 191.35 13.92 194.53 11.05 197.68 C 10.93 157.37 11.04 117.06 11.00 76.74 C 15.21 76.27 19.44 75.98 23.68 75.90 C 22.25 72.41 20.73 68.96 19.13 65.55 C 31.56 65.59 43.98 65.41 56.40 65.20 C 54.06 61.61 51.57 58.13 49.05 54.67 C 61.73 57.18 74.68 58.72 86.95 62.94 C 85.94 59.19 84.94 55.43 83.97 51.67 M 36.90 87.89 C 30.79 90.61 25.95 95.30 22.02 100.61 C 23.19 101.45 24.37 102.30 25.55 103.14 C 38.27 84.30 69.89 83.56 83.37 101.88 C 84.49 100.90 85.61 99.92 86.74 98.94 C 75.56 83.92 53.43 80.39 36.90 87.89 M 49.55 138.62 C 42.05 142.78 42.46 155.74 50.28 159.42 C 56.68 160.89 60.96 153.58 60.26 147.96 C 60.44 142.52 55.44 136.12 49.55 138.62 M 201.39 138.44 C 196.43 140.76 194.85 147.10 196.11 152.07 C 196.88 156.41 201.04 160.63 205.71 159.42 C 212.91 155.99 213.76 145.10 208.25 139.80 C 206.45 137.99 203.73 137.92 201.39 138.44 M 123.21 184.23 C 121.00 187.43 118.01 190.18 116.71 193.93 C 117.73 194.26 118.74 194.61 119.75 194.96 C 122.64 191.64 125.05 187.94 127.95 184.63 C 130.71 187.44 132.82 190.78 135.31 193.81 C 136.10 195.16 137.79 194.59 139.06 194.81 C 138.93 193.45 139.15 191.93 138.11 190.86 C 135.40 187.34 133.11 183.12 129.02 181.03 C 126.50 180.36 124.67 182.55 123.21 184.23 M 41.43 188.23 C 36.90 193.59 32.13 198.75 27.66 204.17 C 29.54 205.98 31.52 207.69 33.61 209.26 C 38.21 203.91 42.95 198.68 47.49 193.27 C 45.50 191.56 43.48 189.88 41.43 188.23 M 62.43 188.23 C 57.90 193.59 53.14 198.74 48.67 204.15 C 50.53 205.98 52.52 207.70 54.62 209.26 C 59.20 204.03 63.68 198.71 68.42 193.61 C 66.59 191.64 64.59 189.84 62.43 188.23 M 187.69 204.10 C 189.52 205.97 191.50 207.70 193.59 209.28 C 198.16 203.89 203.01 198.76 207.41 193.23 C 205.47 191.55 203.52 189.88 201.57 188.21 C 196.87 193.45 192.23 198.73 187.69 204.10 M 209.72 204.07 C 211.51 205.99 213.48 207.74 215.64 209.24 C 220.21 203.89 224.95 198.68 229.47 193.29 C 227.51 191.59 225.54 189.90 223.57 188.21 C 218.89 193.44 214.24 198.71 209.72 204.07 Z" />
<path fill="#ffdcb8" opacity="1.00" d=" M 150.12 255.03 C 150.90 253.51 151.51 253.51 151.93 255.00 C 151.48 255.01 150.57 255.02 150.12 255.03 Z" />
</g>
<g id="#000000ff">
<path fill="#000000" opacity="1.00" d=" M 49.55 138.62 C 55.44 136.12 60.44 142.52 60.26 147.96 C 60.96 153.58 56.68 160.89 50.28 159.42 C 42.46 155.74 42.05 142.78 49.55 138.62 Z" />
<path fill="#000000" opacity="1.00" d=" M 201.39 138.44 C 203.73 137.92 206.45 137.99 208.25 139.80 C 213.76 145.10 212.91 155.99 205.71 159.42 C 201.04 160.63 196.88 156.41 196.11 152.07 C 194.85 147.10 196.43 140.76 201.39 138.44 Z" />
<path fill="#000000" opacity="1.00" d=" M 123.21 184.23 C 124.67 182.55 126.50 180.36 129.02 181.03 C 133.11 183.12 135.40 187.34 138.11 190.86 C 139.15 191.93 138.93 193.45 139.06 194.81 C 137.79 194.59 136.10 195.16 135.31 193.81 C 132.82 190.78 130.71 187.44 127.95 184.63 C 125.05 187.94 122.64 191.64 119.75 194.96 C 118.74 194.61 117.73 194.26 116.71 193.93 C 118.01 190.18 121.00 187.43 123.21 184.23 Z" />
</g>
<g id="#ff9999ff">
<path fill="#ff9999" opacity="1.00" d=" M 11.05 197.68 C 13.92 194.53 16.77 191.35 19.62 188.17 C 21.59 189.92 23.54 191.70 25.45 193.52 C 21.04 198.00 17.59 203.44 12.49 207.20 C 12.01 204.03 11.36 200.88 11.05 197.68 Z" />
<path fill="#ff9999" opacity="1.00" d=" M 41.43 188.23 C 43.48 189.88 45.50 191.56 47.49 193.27 C 42.95 198.68 38.21 203.91 33.61 209.26 C 31.52 207.69 29.54 205.98 27.66 204.17 C 32.13 198.75 36.90 193.59 41.43 188.23 Z" />
<path fill="#ff9999" opacity="1.00" d=" M 62.43 188.23 C 64.59 189.84 66.59 191.64 68.42 193.61 C 63.68 198.71 59.20 204.03 54.62 209.26 C 52.52 207.70 50.53 205.98 48.67 204.15 C 53.14 198.74 57.90 193.59 62.43 188.23 Z" />
<path fill="#ff9999" opacity="1.00" d=" M 187.69 204.10 C 192.23 198.73 196.87 193.45 201.57 188.21 C 203.52 189.88 205.47 191.55 207.41 193.23 C 203.01 198.76 198.16 203.89 193.59 209.28 C 191.50 207.70 189.52 205.97 187.69 204.10 Z" />
<path fill="#ff9999" opacity="1.00" d=" M 209.72 204.07 C 214.24 198.71 218.89 193.44 223.57 188.21 C 225.54 189.90 227.51 191.59 229.47 193.29 C 224.95 198.68 220.21 203.89 215.64 209.24 C 213.48 207.74 211.51 205.99 209.72 204.07 Z" />
<path fill="#ff9999" opacity="1.00" d=" M 230.68 204.15 C 235.31 198.59 240.11 193.16 245.00 187.81 C 244.97 191.53 245.22 195.26 244.79 198.96 C 242.63 202.93 239.44 206.16 236.24 209.29 C 234.38 207.58 232.53 205.87 230.68 204.15 Z" />
<path fill="#ff9999" opacity="1.00" d=" M 81.99 216.06 C 82.96 213.26 84.25 210.19 87.06 208.80 C 91.22 208.51 95.25 209.89 99.29 210.63 C 107.08 212.41 115.10 212.25 123.00 213.09 C 128.68 213.75 134.37 212.98 140.03 212.56 C 147.33 212.23 154.61 211.45 161.70 209.66 C 165.10 209.06 169.77 207.31 172.06 210.97 C 177.82 219.71 177.10 231.83 171.41 240.43 C 166.96 247.37 159.19 250.82 151.95 254.04 C 152.75 254.16 154.33 254.38 155.13 254.50 C 154.06 254.64 152.99 254.81 151.93 255.00 C 151.51 253.51 150.90 253.51 150.12 255.03 C 146.24 255.54 142.34 255.85 138.44 256.00 L 117.59 256.00 C 114.32 255.87 111.05 255.65 107.80 255.25 C 101.58 252.27 94.61 250.39 89.57 245.42 C 81.30 238.42 78.39 226.17 81.99 216.06 M 87.12 212.71 C 86.67 214.16 86.22 215.60 85.75 217.05 C 86.88 218.66 88.06 220.45 90.11 220.93 C 98.77 223.70 107.99 223.06 116.95 223.73 C 128.94 224.60 140.98 224.11 152.96 223.26 C 158.66 222.46 164.84 222.08 169.71 218.70 C 170.75 216.67 169.42 214.53 168.86 212.58 C 160.53 213.75 152.39 216.24 143.92 216.37 C 133.65 217.42 123.32 217.44 113.05 216.38 C 104.24 216.39 95.82 213.54 87.12 212.71 Z" />
</g>
<g id="#ff0000ff">
<path fill="#ff0000" opacity="1.00" d=" M 0.00 196.53 C 0.93 207.59 7.64 217.31 16.15 224.07 C 25.21 231.61 35.90 236.86 46.74 241.33 C 66.14 249.34 86.99 253.19 107.80 255.25 C 111.05 255.65 114.32 255.87 117.59 256.00 L 0.00 256.00 L 0.00 196.53 Z" />
<path fill="#ff0000" opacity="1.00" d=" M 239.85 224.06 C 248.36 217.32 255.06 207.60 256.00 196.55 L 256.00 256.00 L 138.44 256.00 C 142.34 255.85 146.24 255.54 150.12 255.03 C 150.57 255.02 151.48 255.01 151.93 255.00 C 152.99 254.81 154.06 254.64 155.13 254.50 C 172.83 252.27 190.49 248.73 207.14 242.18 C 218.72 237.53 230.20 232.10 239.85 224.06 Z" />
</g>
<g id="#ffffffff">
<path fill="#ffffff" opacity="1.00" d=" M 87.12 212.71 C 95.82 213.54 104.24 216.39 113.05 216.38 C 123.32 217.44 133.65 217.42 143.92 216.37 C 152.39 216.24 160.53 213.75 168.86 212.58 C 169.42 214.53 170.75 216.67 169.71 218.70 C 164.84 222.08 158.66 222.46 152.96 223.26 C 140.98 224.11 128.94 224.60 116.95 223.73 C 107.99 223.06 98.77 223.70 90.11 220.93 C 88.06 220.45 86.88 218.66 85.75 217.05 C 86.22 215.60 86.67 214.16 87.12 212.71 Z" />
</g>
</svg>
