<?xml version="1.0" encoding="utf-8"?>
<!-- Generator: Adobe Illustrator 16.0.0, SVG Export Plug-In . SVG Version: 6.00 Build 0)  -->
<!DOCTYPE svg PUBLIC "-//W3C//DTD SVG 1.1//EN" "http://www.w3.org/Graphics/SVG/1.1/DTD/svg11.dtd">
<svg version="1.1" id="Layer_1" xmlns="http://www.w3.org/2000/svg" xmlns:xlink="http://www.w3.org/1999/xlink" x="0px" y="0px"
	 width="560px" height="330px" viewBox="0 0 560 330" enable-background="new 0 0 560 330" xml:space="preserve">
<rect x="-17.5" y="-14.5" display="none" width="592" height="376"/>
<rect x="-93.5" y="-58.5" display="none" fill="#231F20" stroke="#000000" stroke-miterlimit="10" width="753" height="462"/>
<g>
	<g>
		<path fill="#FFFFFF" d="M91.811,117.333c37.079,17.169,75.25,32.233,113.576,46.345c70.9,26.104,144.52,49.489,219.809,58.396
			c33.688,3.981,69.66,5.295,102.336-5.298c3.099-1.004-0.979-2.53-2.691-1.976c-30.084,9.752-63.187,8.519-94.227,5.214
			c-38.235-4.072-75.963-12.771-112.979-22.992c-64.896-17.918-128.354-41.374-190.306-67.651
			c-10.768-4.568-21.526-9.191-32.141-14.106C93.735,114.589,89.237,116.142,91.811,117.333L91.811,117.333z"/>
	</g>
</g>
<path fill="#FFFFFF" d="M127.601,253.829c1.893,1.78,4.283,2.673,7.167,2.673c3.223,0,5.767-0.991,7.633-2.968
	c1.865-1.979,2.799-4.806,2.799-8.482c0-3.788-0.92-6.657-2.757-8.606c-1.838-1.952-4.397-2.928-7.675-2.928
	c-3.223,0-5.697,0.976-7.422,2.928c-1.725,1.949-2.586,4.818-2.586,8.606C124.76,249.124,125.706,252.047,127.601,253.829z"/>
<path display="none" fill="#FFFFFF" d="M313.669,307.445h-78.536v11.109h78.536V307.445z"/>
<path fill="#FFFFFF" d="M410.852,258.057c1.895,1.78,4.283,2.67,7.164,2.67c3.227,0,5.771-0.987,7.637-2.97
	c1.863-1.979,2.799-4.805,2.799-8.479c0-3.791-0.92-6.658-2.756-8.607c-1.842-1.951-4.396-2.928-7.68-2.928
	c-3.221,0-5.693,0.977-7.42,2.928c-1.723,1.949-2.586,4.816-2.586,8.607C408.01,253.352,408.955,256.273,410.852,258.057z"/>
<path fill="#FFFFFF" d="M479.814,320.298h40v-150h-40v11.845h25.297V308.37h-25.297V320.298L479.814,320.298z"/>
<path fill="#FFFFFF" d="M79.814,170.298h-40v150h40v-11.844H54.519V182.225h25.295V170.298z"/>
<path fill="#FFFFFF" d="M392.89,216.042l54.682,8.291c0,0,3.884,35.817,0,40.086s-33.738,14.748-54.682,0
	C387.795,260.831,392.89,216.042,392.89,216.042z"/>
<g>
	<path fill="#FFFFFF" d="M519.301,166.999c0,0-107.65,0.002-240.438,0.002c-132.795,0-240.443-0.002-240.443-0.002
		S43.645,13.298,278.86,13.298C528.17,13.298,516.282,163.793,519.301,166.999z"/>
	<path fill="#FFFFFF" d="M11.147,166.443c0,8.613-16.007,15.599-2.315,15.599c13.694,0,24.793-6.985,24.793-15.599
		c0-8.614,16.005-15.601,2.314-15.601C22.248,150.845,11.147,157.829,11.147,166.443z"/>
	<path fill="#FFFFFF" d="M22.387,146.473c11.36,0,20.569,12.137,20.569,1.753c0-10.378-9.209-18.796-20.569-18.796
		c-11.361,0-20.572-12.137-20.572-1.755C1.815,138.057,11.025,146.473,22.387,146.473z"/>
</g>
<g>
	<g>
		<path fill="#FFFFFF" d="M134.979,205.213c1.533,0,3.048,0.09,4.546,0.266l1.359,9.771c2.337,0.452,4.618,1.2,6.845,2.245
			l6.586-6.896c2.647,1.567,5.088,3.461,7.315,5.693l-4.389,8.152c1.637,1.742,3.033,3.658,4.182,5.748l8.621-1.621
			c1.289,2.927,2.214,5.992,2.771,9.199l-7.734,3.604c0.138,1.223,0.209,2.42,0.209,3.605c0,1.187-0.071,2.387-0.209,3.605
			l7.734,3.658c-0.557,3.171-1.482,6.216-2.771,9.146l-8.621-1.625c-1.149,2.094-2.545,4.024-4.182,5.803l4.389,8.1
			c-2.227,2.232-4.668,4.146-7.315,5.749l-6.586-6.896c-2.228,1.011-4.508,1.756-6.845,2.242l-1.359,9.723
			c-1.498,0.207-3.013,0.313-4.546,0.313c-1.532,0-3.048-0.105-4.545-0.313l-1.359-9.723c-2.336-0.486-4.617-1.231-6.846-2.242
			l-6.585,6.896c-2.647-1.603-5.087-3.517-7.317-5.749l4.389-8.1c-1.636-1.741-3.031-3.676-4.18-5.803l-8.622,1.625
			c-1.29-2.933-2.213-5.978-2.771-9.146l7.734-3.658c-0.139-1.221-0.209-2.421-0.209-3.605c0-1.188,0.07-2.385,0.209-3.605
			l-7.734-3.604c0.558-3.207,1.481-6.272,2.771-9.198l8.622,1.62c1.148-2.09,2.543-4.023,4.18-5.801l-4.389-8.102
			c2.229-2.232,4.669-4.126,7.317-5.693l6.585,6.844c2.229-1.01,4.51-1.741,6.846-2.193l1.359-9.771l2.246-0.265L134.979,205.213
			L134.979,205.213z M134.979,221.991c-6.339,0-11.758,2.254-16.252,6.768c-4.493,4.513-6.74,9.929-6.74,16.248
			c0,6.326,2.247,11.735,6.74,16.228c4.494,4.496,9.913,6.74,16.252,6.74c6.341,0,11.759-2.244,16.251-6.74
			c4.497-4.49,6.741-9.899,6.741-16.228c0-6.319-2.244-11.735-6.741-16.248c0,0-2.521-2.62-6.375-4.461
			C140.22,222.086,134.979,221.991,134.979,221.991z M143.079,244.982c0,2.229-0.791,4.139-2.377,5.725
			c-1.587,1.579-3.493,2.375-5.723,2.375c-2.229,0-4.136-0.796-5.721-2.375c-1.585-1.586-2.378-3.495-2.378-5.725
			s0.792-4.137,2.378-5.724c1.586-1.586,3.492-2.377,5.721-2.377c2.23,0,4.136,0.791,5.723,2.377L143.079,244.982z"/>
	</g>
</g>
<g id="_x23_010101ff">
	<path fill="#FFFFFF" d="M248.704,288.744c3.388-1.682,7.059-2.729,10.792-3.291c3.424-0.297,6.865,0.223,10.187,1.043
		c3.138,1.169,6.007,2.921,8.817,4.725c2.25-1.267,4.287-2.972,6.787-3.729c2.223-0.738,4.396-1.743,6.762-1.918
		c3.158-0.598,6.367-0.078,9.527,0.209c4.152,0.453,8.02,2.21,11.608,4.271c6.441,3.637,12.412,8.041,18.857,11.666
		c2.574,1.217,5.246,2.537,8.158,2.565c2.36-0.093,4.703-0.981,6.436-2.601c0.894-1.104,0.849-2.644,0.904-3.985
		c0.039-3.386-2.076-6.718-5.23-7.976c-1.549-0.461-3.368-0.486-4.684,0.573c-0.816,0.468-1.322,1.597-2.398,1.345
		c0.435-1.727,1.957-2.894,3.38-3.822c3.139-1.904,7.342-1.659,10.305,0.479c3.527,2.441,6.477,6.166,7.098,10.51
		c0.521,3.687,0.162,7.609-1.697,10.896c-1.352,2.164-2.594,4.478-4.575,6.133c-2.324,1.908-5.015,3.308-7.738,4.543
		c-4.398,1.443-8.896,2.854-13.562,2.945c-4.639,0.271-9.278-0.198-13.909-0.421c-8.318-1.232-16.604-3.271-24.271-6.781
		c-4.229-1.784-8.108-4.571-11.756-7.29c-1.394,0.635-2.097,1.578-3.297,2.495c-4.54,3.71-10.087,5.857-15.587,7.711
		c-6.88,2.4-14.08,3.732-21.306,4.563c-3.134,0.219-6.296,0.69-9.423,0.141c-3.551-0.186-6.982-1.182-10.376-2.158
		c-3.151-0.99-6.23-2.292-8.959-4.174c-3.138-2.688-5.786-6.17-6.729-10.254c-0.695-2.821-1.045-5.823-0.416-8.69
		c0.613-1.608,0.949-3.377,2.031-4.765c0.84-1.128,1.542-2.389,2.596-3.342c1.439-0.906,2.973-1.696,4.598-2.209
		c2.844-0.584,5.905-0.26,8.521,1.004c0.61,0.555,1.658,0.881,1.651,1.854c-1.495-0.057-2.796-0.973-4.296-0.982
		c-1.346-0.002-2.693,0.373-3.852,1.058c-2.331,1.89-3.27,5.049-2.979,7.976c0.142,1.105,0.084,2.325,0.794,3.262
		c0.88,1.479,2.552,2.424,4.274,2.393c3.339,0.072,6.359-1.553,9.32-2.882C233.091,297.736,240.64,292.768,248.704,288.744z"/>
</g>
</svg>
